<svg xmlns="http://www.w3.org/2000/svg" xmlns:xlink="http://www.w3.org/1999/xlink" width="68" height="68" viewBox="0 0 68 68">
  <defs>
    <clipPath id="clip-f_logo_RGB-Blue_68x68">
      <rect width="68" height="68"/>
    </clipPath>
  </defs>
  <g id="f_logo_RGB-Blue_68x68" clip-path="url(#clip-f_logo_RGB-Blue_68x68)">
    <rect id="矩形_3" data-name="矩形 3" width="68" height="68" fill="none"/>
    <g id="f_logo_RGB-Blue_1024" transform="translate(0 0)">
      <path id="路径_1" data-name="路径 1" d="M68,34A34,34,0,1,0,28.687,67.587V43.828H20.055V34h8.633V26.509c0-8.521,5.076-13.228,12.842-13.228a52.285,52.285,0,0,1,7.611.664v8.367H44.853c-4.224,0-5.541,2.621-5.541,5.31V34h9.43l-1.507,9.828H39.312V67.587A34.008,34.008,0,0,0,68,34Z" transform="translate(0 0)" fill="#1877f2"/>
      <path id="路径_2" data-name="路径 2" d="M329.18,230.547l1.507-9.828h-9.43v-6.378c0-2.689,1.317-5.31,5.541-5.31h4.287v-8.367a52.285,52.285,0,0,0-7.611-.664c-7.766,0-12.842,4.707-12.842,13.228v7.491H302v9.828h8.633v23.759a34.37,34.37,0,0,0,10.625,0V230.547Z" transform="translate(-281.945 -186.719)" fill="#fff"/>
    </g>
  </g>
</svg>
