<svg xmlns="http://www.w3.org/2000/svg" xmlns:xlink="http://www.w3.org/1999/xlink" width="68" height="68" viewBox="0 0 68 68">
  <defs>
    <clipPath id="clip-LINE_SOCIAL_Circle_CMYK_68x68">
      <rect width="68" height="68"/>
    </clipPath>
  </defs>
  <g id="LINE_SOCIAL_Circle_CMYK_68x68" clip-path="url(#clip-LINE_SOCIAL_Circle_CMYK_68x68)">
    <g id="LINE_SOCIAL_Circle_RGB" transform="translate(-369.448 -246.142)">
      <path id="路径_17" data-name="路径 17" d="M437.448,280.142a34,34,0,1,1-34-34,34,34,0,0,1,34,34" transform="translate(0 0)" fill="#00b900"/>
      <path id="路径_18" data-name="路径 18" d="M434.77,288.5c0-10.12-10.145-18.353-22.616-18.353s-22.615,8.233-22.615,18.353c0,9.072,8.046,16.67,18.914,18.107.736.159,1.739.486,1.992,1.115a4.651,4.651,0,0,1,.073,2.045s-.265,1.6-.323,1.936c-.1.572-.454,2.237,1.959,1.219s13.024-7.669,17.769-13.13h0c3.278-3.594,4.848-7.242,4.848-11.292" transform="translate(-8.706 -10.404)" fill="#fff"/>
      <path id="路径_19" data-name="路径 19" d="M419.79,293.909H418.2a.44.44,0,0,0-.44.44V304.2a.44.44,0,0,0,.44.439h1.587a.44.44,0,0,0,.44-.439v-9.854a.44.44,0,0,0-.44-.44" transform="translate(-20.937 -20.699)" fill="#00b900"/>
      <path id="路径_20" data-name="路径 20" d="M433.774,293.909h-1.587a.44.44,0,0,0-.44.44V300.2l-4.516-6.1a.36.36,0,0,0-.035-.044l0,0-.026-.028-.008-.007-.023-.019-.011-.009-.023-.016-.013-.008-.024-.013-.014-.007-.026-.011-.014-.005-.026-.009-.015,0-.026-.006-.019,0-.023,0-.023,0h-1.6a.441.441,0,0,0-.441.44V304.2a.44.44,0,0,0,.441.439h1.586a.44.44,0,0,0,.441-.439V298.35l4.521,6.106a.444.444,0,0,0,.112.109l0,0,.027.016.013.007.021.01.022.009.013.005.03.009.007,0a.425.425,0,0,0,.112.015h1.587a.439.439,0,0,0,.44-.439v-9.854a.44.44,0,0,0-.44-.44" transform="translate(-24.002 -20.699)" fill="#00b900"/>
      <path id="路径_21" data-name="路径 21" d="M409.409,302.175H405.1v-7.826a.44.44,0,0,0-.44-.44h-1.587a.44.44,0,0,0-.44.44V304.2a.436.436,0,0,0,.123.3.024.024,0,0,0,.006.007l.006.006a.437.437,0,0,0,.3.122h6.338a.44.44,0,0,0,.44-.44v-1.587a.44.44,0,0,0-.44-.44" transform="translate(-14.38 -20.699)" fill="#00b900"/>
      <path id="路径_22" data-name="路径 22" d="M450.884,296.377a.44.44,0,0,0,.44-.44V294.35a.44.44,0,0,0-.44-.44h-6.338a.437.437,0,0,0-.305.124l0,0-.007.008a.438.438,0,0,0-.122.3V304.2a.437.437,0,0,0,.124.3l.006.007.006.006a.437.437,0,0,0,.3.123h6.338a.44.44,0,0,0,.44-.44v-1.587a.44.44,0,0,0-.44-.441h-4.31V300.51h4.31a.44.44,0,0,0,.44-.44v-1.586a.44.44,0,0,0-.44-.441h-4.31v-1.665h4.31Z" transform="translate(-32.352 -20.699)" fill="#00b900"/>
    </g>
  </g>
</svg>
