<svg xmlns="http://www.w3.org/2000/svg" xmlns:xlink="http://www.w3.org/1999/xlink" width="68" height="68" viewBox="0 0 68 68">
  <defs>
    <clipPath id="clip-path">
      <path id="路径_90" data-name="路径 90" d="M34-993.987c-19.154,0-34,14.031-34,32.981a32.266,32.266,0,0,0,10.679,24.4,2.739,2.739,0,0,1,.917,1.936l.185,6.048a2.725,2.725,0,0,0,3.817,2.408l6.745-2.976a2.713,2.713,0,0,1,1.813-.137A36.972,36.972,0,0,0,34-928.025c19.154,0,34-14.031,34-32.981S53.154-993.987,34-993.987Z" transform="translate(0 993.987)" fill="none" clip-rule="evenodd"/>
    </clipPath>
    <linearGradient id="linear-gradient" y1="0.5" x2="1" y2="0.5" gradientUnits="objectBoundingBox">
      <stop offset="0" stop-color="#00b1ff"/>
      <stop offset="0.1" stop-color="#0af"/>
      <stop offset="0.2" stop-color="#00a3ff"/>
      <stop offset="0.3" stop-color="#009cff"/>
      <stop offset="0.4" stop-color="#0095ff"/>
      <stop offset="0.5" stop-color="#008dff"/>
      <stop offset="0.6" stop-color="#0086ff"/>
      <stop offset="0.7" stop-color="#007fff"/>
      <stop offset="0.8" stop-color="#0078ff"/>
      <stop offset="0.9" stop-color="#0071ff"/>
      <stop offset="1" stop-color="#006aff"/>
    </linearGradient>
    <clipPath id="clip-Messenger_Logo_Color_RGB_68x68">
      <rect width="68" height="68"/>
    </clipPath>
  </defs>
  <g id="Messenger_Logo_Color_RGB_68x68" clip-path="url(#clip-Messenger_Logo_Color_RGB_68x68)">
    <g id="组_35" data-name="组 35" transform="translate(48.377 -928.604)">
      <g id="组_34" data-name="组 34" transform="translate(-48.377 928.604)" clip-path="url(#clip-path)">
        <g id="组_33" data-name="组 33" transform="translate(67.998) rotate(90)">
          <path id="路径_89" data-name="路径 89" d="M0,68V0H68V68Z" fill="url(#linear-gradient)"/>
        </g>
      </g>
      <path id="路径_91" data-name="路径 91" d="M195.007-641.277l10.515-14.545a5.867,5.867,0,0,1,7.764-1.25l8.362,5.47a2.406,2.406,0,0,0,2.586-.006l11.293-7.473c1.505-1,3.479.578,2.463,1.972l-10.508,14.538a5.866,5.866,0,0,1-7.764,1.25l-8.362-5.47a2.406,2.406,0,0,0-2.586.006l-11.3,7.48C195.965-638.306,193.991-639.883,195.007-641.277Z" transform="translate(-230.877 1611.801)" fill="#fff" fill-rule="evenodd"/>
    </g>
  </g>
</svg>
