<svg xmlns="http://www.w3.org/2000/svg" xmlns:xlink="http://www.w3.org/1999/xlink" width="68" height="68" viewBox="0 0 68 68">
  <defs>
    <clipPath id="clip-Pinterest-Logo_68x68">
      <rect width="68" height="68"/>
    </clipPath>
  </defs>
  <g id="Pinterest-Logo_68x68" clip-path="url(#clip-Pinterest-Logo_68x68)">
    <g id="badgeRGB">
      <circle id="椭圆_1" data-name="椭圆 1" cx="33.972" cy="33.972" r="33.972" transform="translate(0 0)" fill="#fff"/>
      <path id="路径_23" data-name="路径 23" d="M33.972,0A33.983,33.983,0,0,0,21.586,65.623a32.707,32.707,0,0,1,.112-9.758c.615-2.656,3.97-16.888,3.97-16.888a12.375,12.375,0,0,1-1.007-5.033c0-4.725,2.74-8.248,6.151-8.248,2.908,0,4.306,2.181,4.306,4.781,0,2.908-1.845,7.27-2.824,11.324a4.942,4.942,0,0,0,5.033,6.151c6.039,0,10.681-6.375,10.681-15.546,0-8.137-5.844-13.813-14.2-13.813-9.674,0-15.35,7.242-15.35,14.735a13.261,13.261,0,0,0,2.516,7.745,1.011,1.011,0,0,1,.224.979c-.252,1.063-.839,3.383-.951,3.859-.14.615-.5.755-1.146.447-4.25-1.985-6.906-8.164-6.906-13.169,0-10.709,7.773-20.551,22.452-20.551,11.771,0,20.942,8.388,20.942,19.628C55.586,43.982,48.2,53.4,37.97,53.4c-3.439,0-6.683-1.789-7.773-3.914,0,0-1.706,6.487-2.125,8.081A37.011,37.011,0,0,1,23.85,66.49,34,34,0,1,0,33.972,0Z" transform="translate(0 0)" fill="#e60019"/>
    </g>
    <rect id="矩形_2" data-name="矩形 2" width="68" height="68" fill="none"/>
  </g>
</svg>
