<svg xmlns="http://www.w3.org/2000/svg" xmlns:xlink="http://www.w3.org/1999/xlink" width="68" height="68" viewBox="0 0 68 68">
  <defs>
    <clipPath id="clip-Skypeicon_trans_68x68">
      <rect width="68" height="68"/>
    </clipPath>
  </defs>
  <g id="Skypeicon_trans_68x68" clip-path="url(#clip-Skypeicon_trans_68x68)">
    <path id="排除_1" data-name="排除 1" d="M-31.007-490.077a19.118,19.118,0,0,1-9.352-2.472,31.441,31.441,0,0,1-5.62.507,31.9,31.9,0,0,1-12.514-2.529,31.8,31.8,0,0,1-10.21-6.878,32.094,32.094,0,0,1-6.879-10.207A32,32,0,0,1-78.1-524.174a32.574,32.574,0,0,1,.483-5.539l.035.072a1.387,1.387,0,0,0,.138.244l-.123-.679a1.254,1.254,0,0,0-.022.153,1.611,1.611,0,0,1-.027.184A19.178,19.178,0,0,1-80-538.972a18.9,18.9,0,0,1,5.565-13.463A18.9,18.9,0,0,1-60.972-558a19.08,19.08,0,0,1,8.919,2.237c-.088.016-.165.033-.24.049l-.1.022.683.1a1.4,1.4,0,0,1-.168-.083,1.294,1.294,0,0,0-.174-.085h.023a31.725,31.725,0,0,1,6.079-.586,31.89,31.89,0,0,1,12.514,2.53,31.785,31.785,0,0,1,10.211,6.878,32.2,32.2,0,0,1,6.874,10.206,31.931,31.931,0,0,1,2.529,12.514,33.421,33.421,0,0,1-.532,5.833,1.174,1.174,0,0,1-.105-.165,1.444,1.444,0,0,0-.091-.148l.12.679c.012-.054.023-.111.034-.165s.027-.132.041-.2a18.483,18.483,0,0,1,2.357,9.3,18.881,18.881,0,0,1-5.565,13.44A18.79,18.79,0,0,1-31.007-490.077Zm-27.561-27.947a3.609,3.609,0,0,0-3.789,3.67c0,2.284,1.488,4.709,3.979,6.487,2.131,1.52,6.037,3.333,12.546,3.333,10.156,0,16.234-4.57,16.258-12.226,0-5.9-3.476-9.665-10.33-11.182l-7.557-1.625c-2.6-.6-6.15-1.421-6.15-4.207,0-2.833,2.487-4.593,6.492-4.593,4.932,0,6.727,2.007,8.169,3.62,1.027,1.148,1.914,2.14,3.642,2.14,2.04,0,4.1-1.2,4.1-3.5,0-2.4-1.783-4.7-5.02-6.473a22.343,22.343,0,0,0-10.289-2.593,20.384,20.384,0,0,0-10.736,2.7,10.371,10.371,0,0,0-5.012,9.165c0,3.822,1.1,8.482,9.673,10.619l10.157,2.529a5.482,5.482,0,0,1,3.067,1.717,3.6,3.6,0,0,1,.771,2.317c0,2.549-2.487,5.129-7.241,5.129a10.294,10.294,0,0,1-5.7-1.418,11.529,11.529,0,0,1-2.893-2.9C-55.537-516.771-56.5-518.024-58.568-518.024Z" transform="translate(80 558)" fill="#fff"/>
  </g>
</svg>
