<svg xmlns="http://www.w3.org/2000/svg" xmlns:xlink="http://www.w3.org/1999/xlink" width="68" height="68" viewBox="0 0 68 68">
  <defs>
    <clipPath id="clip-Skypeicon_68x68">
      <rect width="68" height="68"/>
    </clipPath>
  </defs>
  <g id="Skypeicon_68x68" clip-path="url(#clip-Skypeicon_68x68)">
    <path id="路径_27" data-name="路径 27" d="M68.673,9.318A8.651,8.651,0,0,0,60.028.673H9.318A8.651,8.651,0,0,0,.673,9.318v50.71a8.651,8.651,0,0,0,8.645,8.645h50.71a8.651,8.651,0,0,0,8.645-8.645V9.318Z" transform="translate(-0.673 -0.673)" fill="none" fill-rule="evenodd"/>
    <g id="组_4" data-name="组 4">
      <path id="路径_28" data-name="路径 28" d="M68.581,42.561c-.026.12-.049.244-.075.364l-.12-.679c.071.1.12.218.2.315a33.645,33.645,0,0,0,.533-5.835,31.9,31.9,0,0,0-2.529-12.514A32.246,32.246,0,0,0,59.71,14.007a32.094,32.094,0,0,0-28.8-8.822h-.023c.12.045.218.12.341.169l-.683-.1c.124-.026.221-.049.341-.071A19.03,19.03,0,0,0,5.318,31.211c.026-.12.026-.244.049-.338l.124.679a1.871,1.871,0,0,1-.173-.315,32.432,32.432,0,0,0-.484,5.538A32.1,32.1,0,0,0,36.96,68.906a31.435,31.435,0,0,0,5.64-.51,1.388,1.388,0,0,0-.341-.173l.683.124a2.059,2.059,0,0,1-.368.049,19.125,19.125,0,0,0,9.358,2.476A19,19,0,0,0,70.937,51.867a18.413,18.413,0,0,0-2.356-9.306Z" transform="translate(-2.939 -2.949)" fill="#00adee"/>
      <path id="路径_29" data-name="路径 29" d="M24.166,47c-11.422,0-16.525-5.613-16.525-9.82a3.594,3.594,0,0,1,3.79-3.67c4.885,0,3.621,7.024,12.735,7.024,4.668,0,7.242-2.529,7.242-5.129,0-1.553-.777-3.279-3.839-4.034L17.412,28.848c-8.191-2.041-9.673-6.461-9.673-10.619,0-8.626,8.116-11.861,15.748-11.861,7.024,0,15.309,3.891,15.309,9.065,0,2.214-1.921,3.5-4.1,3.5-4.18,0-3.4-5.76-11.812-5.76-4.18,0-6.491,1.895-6.491,4.593s3.306,3.55,6.15,4.206L30.094,23.6c8.24,1.824,10.33,6.638,10.33,11.182C40.4,41.778,35.029,47,24.166,47Z" transform="translate(10.002 6.461)" fill="#fff"/>
    </g>
  </g>
</svg>
