<svg xmlns="http://www.w3.org/2000/svg" xmlns:xlink="http://www.w3.org/1999/xlink" width="68" height="68" viewBox="0 0 68 68">
  <defs>
    <clipPath id="clip-Twitter_Social_Icon_Circle_Color_68x68">
      <rect width="68" height="68"/>
    </clipPath>
  </defs>
  <g id="Twitter_Social_Icon_Circle_Color_68x68" clip-path="url(#clip-Twitter_Social_Icon_Circle_Color_68x68)">
    <g id="Twitter_Social_Icon_Circle_Color">
      <circle id="Dark_Blue" cx="34" cy="34" r="34" fill="#1da1f2"/>
      <path id="Logo__x2014__FIXED" d="M102.3,147.164c15.169,0,23.463-12.57,23.463-23.463,0-.359,0-.718-.017-1.06a16.894,16.894,0,0,0,4.121-4.275,16.737,16.737,0,0,1-4.737,1.3,8.242,8.242,0,0,0,3.625-4.566,16.7,16.7,0,0,1-5.233,2,8.251,8.251,0,0,0-14.263,5.643,7.556,7.556,0,0,0,.222,1.881,23.393,23.393,0,0,1-17-8.619,8.242,8.242,0,0,0,2.565,11,8.1,8.1,0,0,1-3.728-1.026v.1a8.255,8.255,0,0,0,6.618,8.089,8.221,8.221,0,0,1-2.172.291,7.874,7.874,0,0,1-1.556-.154,8.234,8.234,0,0,0,7.7,5.729,16.577,16.577,0,0,1-10.244,3.523,15,15,0,0,1-1.967-.12,22.975,22.975,0,0,0,12.6,3.728" transform="translate(-74.58 -95.141)" fill="#fff"/>
    </g>
  </g>
</svg>
