<svg xmlns="http://www.w3.org/2000/svg" xmlns:xlink="http://www.w3.org/1999/xlink" width="68" height="68" viewBox="0 0 68 68">
  <defs>
    <clipPath id="clip-VK_Blue_Logo_transparent_68x68">
      <rect width="68" height="68"/>
    </clipPath>
  </defs>
  <g id="VK_Blue_Logo_transparent_68x68" clip-path="url(#clip-VK_Blue_Logo_transparent_68x68)">
    <rect id="矩形_10" data-name="矩形 10" width="68" height="68" fill="none"/>
    <g id="VK_Blue_Logo" transform="translate(-70.9 -70.9)">
      <path id="路径_67" data-name="路径 67" d="M94.462,70.9h20.875c19.052,0,23.562,4.511,23.562,23.562v20.875c0,19.052-4.511,23.562-23.562,23.562H94.462c-19.052,0-23.562-4.511-23.562-23.562V94.462C70.9,75.411,75.411,70.9,94.462,70.9" fill="#4680c2" fill-rule="evenodd"/>
      <path id="路径_68" data-name="路径 68" d="M138.946,117.672c.336-1.056,0-1.824-1.488-1.824h-4.943a2.188,2.188,0,0,0-2.16,1.392,42.113,42.113,0,0,1-6.095,10.126c-1.152,1.152-1.68,1.536-2.3,1.536-.336,0-.768-.384-.768-1.44v-9.838c0-1.248-.384-1.824-1.44-1.824h-7.774a1.191,1.191,0,0,0-1.248,1.152c0,1.2,1.776,1.488,1.968,4.847v7.294c0,1.584-.288,1.872-.912,1.872-1.68,0-5.759-6.191-8.206-13.245-.48-1.392-.96-1.92-2.207-1.92H96.38c-1.44,0-1.68.672-1.68,1.392,0,1.3,1.68,7.822,7.822,16.46,4.079,5.9,9.886,9.07,15.116,9.07,3.167,0,3.551-.72,3.551-1.92v-4.463c0-1.44.288-1.68,1.3-1.68.72,0,2.016.384,4.943,3.215,3.359,3.359,3.935,4.895,5.807,4.895h4.943c1.44,0,2.111-.72,1.728-2.111-.432-1.392-2.064-3.407-4.175-5.807-1.152-1.344-2.879-2.831-3.407-3.551-.72-.96-.528-1.344,0-2.207-.048,0,6-8.542,6.622-11.421" transform="translate(-12.379 -23.353)" fill="#fff" fill-rule="evenodd"/>
    </g>
  </g>
</svg>
