<svg xmlns="http://www.w3.org/2000/svg" xmlns:xlink="http://www.w3.org/1999/xlink" width="68" height="68" viewBox="0 0 68 68">
  <defs>
    <clipPath id="clip-Share_Viber_icon_68x68">
      <rect width="68" height="68"/>
    </clipPath>
  </defs>
  <g id="Share_Viber_icon_68x68" clip-path="url(#clip-Share_Viber_icon_68x68)">
    <g id="组_38" data-name="组 38" transform="translate(-10 -10)">
      <circle id="椭圆_4" data-name="椭圆 4" cx="34" cy="34" r="34" transform="translate(10 10)" fill="#665cac"/>
      <g id="组_22" data-name="组 22" transform="translate(25.583 24.167)">
        <g id="组_20" data-name="组 20">
          <path id="路径_84" data-name="路径 84" d="M229.394,182.581c-.986-.9-4.959-3.789-13.808-3.831,0,0-10.441-.63-15.531,4.039-2.833,2.833-3.831,6.978-3.932,12.122s-.243,14.77,9.045,17.384h.006l-.006,3.985s-.059,1.615,1,1.942c1.283.4,2.037-.826,3.266-2.15.671-.725,1.6-1.794,2.3-2.607a35.864,35.864,0,0,0,11.789-.867c1.283-.416,8.54-1.348,9.716-10.975C234.466,191.7,232.654,185.414,229.394,182.581Zm1.075,18.328c-1,8.041-6.883,8.552-7.964,8.9a32.943,32.943,0,0,1-10.144.861s-4.021,4.846-5.274,6.111a.67.67,0,0,1-.582.238c-.214-.053-.273-.309-.273-.683.006-.534.036-6.622.036-6.622h0c-7.851-2.18-7.394-10.381-7.3-14.675s.9-7.81,3.29-10.174c4.306-3.9,13.173-3.314,13.173-3.314,7.489.036,11.076,2.287,11.908,3.041,2.756,2.37,4.163,8.03,3.136,16.32Z" transform="translate(-196.1 -178.722)" fill="#fff"/>
          <path id="路径_85" data-name="路径 85" stroke="#fff" d="M537.785,398.192A2.532,2.532,0,0,0,535.1,395.5" fill="none" transform="translate(-515.975 -382.042)" stroke-linecap="round" stroke-linejoin="round" stroke-width="0.6" fill-rule="evenodd"/>
          <path id="路径_86" data-name="路径 86" stroke="#fff" d="M527.865,355.967a5.223,5.223,0,0,0-1.457-3.913A6.172,6.172,0,0,0,522.2,350.3" fill="none" transform="translate(-503.075 -339.675)" stroke-linecap="round" stroke-linejoin="round" stroke-width="0.6" fill-rule="evenodd"/>
          <path id="路径_87" data-name="路径 87" stroke="#fff" d="M515.9,315a8.181,8.181,0,0,0-2.459-6.209A8.6,8.6,0,0,0,507.4,306.5" fill="none" transform="translate(-488.275 -298.708)" stroke-linecap="round" stroke-linejoin="round" stroke-width="0.6" fill-rule="evenodd"/>
          <path id="路径_88" data-name="路径 88" d="M347.594,332.052a1.4,1.4,0,0,0,1.114-.422l.759-.955a1.673,1.673,0,0,1,2.123-.294c.484.275,1.352.808,1.891,1.206.575.422,1.756,1.407,1.756,1.407a1.455,1.455,0,0,1,.312,1.9.021.021,0,0,1-.006.012,7.915,7.915,0,0,1-1.585,1.952l-.012.012a3.135,3.135,0,0,1-1.609.777.9.9,0,0,1-.233.012,2.192,2.192,0,0,1-.685-.1l-.018-.024a23.3,23.3,0,0,1-4.424-2.044,26.053,26.053,0,0,1-3.714-2.454,19.662,19.662,0,0,1-1.671-1.481l-.22-.22a19.651,19.651,0,0,1-1.481-1.671,26.4,26.4,0,0,1-2.454-3.715,23.291,23.291,0,0,1-2.044-4.424l-.024-.018a2.026,2.026,0,0,1-.1-.685.9.9,0,0,1,.012-.233,3.136,3.136,0,0,1,.777-1.609l.012-.012a7.8,7.8,0,0,1,1.952-1.585.021.021,0,0,0,.012-.006,1.455,1.455,0,0,1,1.9.312c.006.006.985,1.181,1.408,1.756a22.207,22.207,0,0,1,1.206,1.891,1.674,1.674,0,0,1-.294,2.123l-.955.759a1.41,1.41,0,0,0-.422,1.114S342.294,330.7,347.594,332.052Z" transform="translate(-326.987 -308.422)" fill="#fff"/>
        </g>
      </g>
    </g>
    <rect id="矩形_10" data-name="矩形 10" width="68" height="68" fill="none"/>
  </g>
</svg>
