<svg xmlns="http://www.w3.org/2000/svg" xmlns:xlink="http://www.w3.org/1999/xlink" width="68" height="68" viewBox="0 0 68 68">
  <defs>
    <clipPath id="clip-WhatsApp_Logo_2_68x68">
      <rect width="68" height="68"/>
    </clipPath>
  </defs>
  <g id="WhatsApp_Logo_2_68x68" clip-path="url(#clip-WhatsApp_Logo_2_68x68)">
    <rect id="矩形_5" data-name="矩形 5" width="68" height="68" rx="8" fill="#25d366"/>
    <g id="WhatsApp-Logo" transform="translate(13 12)">
      <path id="路径_10" data-name="路径 10" d="M462.1,351.271c-.534-.267-3.161-1.56-3.651-1.738s-.846-.267-1.2.267-1.38,1.738-1.692,2.095-.623.4-1.157.134a14.585,14.585,0,0,1-4.3-2.652,16.1,16.1,0,0,1-2.972-3.7c-.312-.535-.033-.824.234-1.09.24-.239.534-.624.8-.936a3.643,3.643,0,0,0,.534-.891.983.983,0,0,0-.045-.936c-.133-.267-1.2-2.9-1.647-3.967-.434-1.042-.874-.9-1.2-.917-.311-.015-.668-.019-1.024-.019a1.963,1.963,0,0,0-1.425.668,5.992,5.992,0,0,0-1.87,4.457c0,2.63,1.914,5.17,2.181,5.527s3.767,5.753,9.127,8.067a30.653,30.653,0,0,0,3.046,1.125,7.32,7.32,0,0,0,3.365.212c1.026-.153,3.161-1.292,3.606-2.54a4.467,4.467,0,0,0,.312-2.541c-.134-.223-.49-.357-1.024-.624m-9.748,13.31h-.007A17.745,17.745,0,0,1,443.3,362.1l-.649-.385-6.726,1.764,1.8-6.558-.422-.672a17.771,17.771,0,1,1,15.055,8.328m15.125-32.9a21.386,21.386,0,0,0-33.652,25.8l-3.033,11.08,11.335-2.973a21.361,21.361,0,0,0,10.218,2.6h.009a21.391,21.391,0,0,0,15.125-36.507" transform="translate(-430.791 -325.414)" fill="#fff" fill-rule="evenodd"/>
    </g>
  </g>
</svg>
